<?xml version="1.0" encoding="UTF-8"?>
<svg id="Layer_1" data-name="Layer 1" xmlns="http://www.w3.org/2000/svg" viewBox="0 0 203.74 206.3">
  <defs>
    <style>
      .cls-1 {
        fill: #808184;
      }

      .cls-1, .cls-2, .cls-3, .cls-4, .cls-5, .cls-6, .cls-7, .cls-8, .cls-9, .cls-10, .cls-11, .cls-12, .cls-13, .cls-14, .cls-15, .cls-16 {
        stroke-miterlimit: 10;
      }

      .cls-1, .cls-2, .cls-4, .cls-6, .cls-7, .cls-9, .cls-10, .cls-11, .cls-12, .cls-14, .cls-15 {
        stroke: #231f20;
      }

      .cls-17, .cls-3, .cls-6, .cls-13, .cls-16 {
        fill: #231f20;
      }

      .cls-2 {
        stroke-width: .5px;
      }

      .cls-2, .cls-18, .cls-4 {
        fill: #fff;
      }

      .cls-3 {
        stroke: #754d29;
      }

      .cls-5, .cls-8 {
        stroke: #fff;
      }

      .cls-5, .cls-8, .cls-12, .cls-14 {
        fill: none;
      }

      .cls-7, .cls-19 {
        fill: #754d29;
      }

      .cls-8 {
        stroke-width: .75px;
      }

      .cls-9, .cls-20 {
        fill: #603a17;
      }

      .cls-10 {
        fill: #3b2416;
      }

      .cls-11 {
        fill: #8a5e3c;
      }

      .cls-12, .cls-16 {
        stroke-width: .25px;
      }

      .cls-13, .cls-16 {
        stroke: #603a17;
      }

      .cls-21 {
        fill: #929497;
      }

      .cls-15 {
        fill: #a7a9ac;
      }

      .cls-16 {
        font-family: ShowcardGothic-Reg, 'Showcard Gothic';
        font-size: 11.09px;
      }
    </style>
  </defs>
  <path class="cls-13" d="M203.24,109.65c0,21.16-5.15,37.81-15.46,49.95-10.63,12.6-25.6,18.91-44.93,18.91-12.42,0-22.02-.79-28.78-2.37l-1.86-65.33c-.6-16.77-1.68-39.89-3.24-69.38,9.98-1.82,20.4-2.73,31.26-2.73,19.37,0,34.53,5.75,45.48,17.23,11.69,12.31,17.53,30.22,17.53,53.73ZM174.95,120.47c0-8.62-2.19-14.98-6.56-19.08-3.63-3.4-8.28-4.95-13.94-4.66l-.96,55.13c5.89-.47,10.7-2.9,14.42-7.3,4.69-5.45,7.04-13.48,7.04-24.09Z"/>
  <text class="cls-16" transform="translate(132.96 190.62) scale(1.2 1)"><tspan x="0" y="0">No</tspan><tspan x="-12.84" y="13.3">Effort</tspan></text>
  <rect class="cls-6" x="102" y="135.16" width="20.99" height="32.4" transform="translate(224.99 302.72) rotate(-180)"/>
  <path class="cls-2" d="M123.52,162.4c0-.56-.76-.85-1.21-.45-1.68,1.51-4.83,3.76-9.54,4.68-4.48.87-8.24.11-10.24-.46-.45-.13-.9.15-.93.57-.18,2.91-.35,5.81-.53,8.72-.02.37.3.67.71.67h21.21c.4,0,.72-.29.71-.65l-.18-13.09Z"/>
  <polygon class="cls-6" points="118.35 148.42 102.67 152.57 102.67 147.94 118.35 148.42"/>
  <rect class="cls-6" x="77.23" y="135.16" width="20.99" height="32.4"/>
  <path class="cls-2" d="M76.7,162.4c0-.56.76-.85,1.21-.45,1.68,1.51,4.83,3.76,9.54,4.68,4.48.87,8.24.11,10.24-.46.45-.13.9.15.93.57.18,2.91.35,5.81.53,8.72.02.37-.3.67-.71.67h-21.21c-.4,0-.72-.29-.71-.65l.18-13.09Z"/>
  <polygon class="cls-2" points="82.6 91.57 82.6 147.48 115.78 147.48 114.3 93.47 82.6 91.57"/>
  <path class="cls-17" d="M92.54,88.62c1.47.05,1.75.28,3.28.36.56.03,1,.05,1.88.04,1.15-.01,1.99-.08,3.29-.19.7-.06,1.62-.14,2.72-.26-.11.11-.26.25-.44.41-.16.14-.31.27-.39.32-.31.21-.65.33-.99.45-1.03.37-.98.42-1.46.52-.29.06-.22.02-.89.11-.66.09-.68.13-1.21.2-.11.01-.59.08-1.24.11-.37.02-.64.02-.85.02-.43,0-.77,0-1.21-.02-.76-.05-.9-.14-1.36-.14-.12,0-.28,0-.5-.05-.16-.04-.21-.07-.37-.1-.19-.03-.28-.01-.44-.01-.48,0-.52-.17-.98-.16-.27,0-.41.01-.42.01-.12.03-.22.07-.28,0-.04-.04-.04-.1-.05-.2,0-.06-.02-.27.08-.48.06-.12.09-.12.11-.21.02-.11-.03-.15,0-.26.01-.06.04-.1.1-.19.01-.02.02-.04.11-.15.09-.12.11-.14.1-.16-.01-.03-.12,0-.12,0,0,.04.67,0,1.52.03Z"/>
  <polygon class="cls-6" points="97.18 147.97 81.49 152.12 81.49 147.48 97.18 147.97"/>
  <path class="cls-4" d="M58.77,129.66c.36,2.97.76,5.93,1.08,8.9.12,1.12-.52,1.28.24,2.28.37.48,1.63,1.91,2.14,2.34,1.71,1.44,3.54,2.89,5.99,3.72,2.45.83,5.68.88,7.71-.36,1.76-1.07,2.21-2.78,2.56-4.36.65-2.93,1.29-5.86,1.94-8.78,1.07-4.83,2.13-9.66,3.2-14.49,1.31-5.95,2.45-12.5-2.38-17.57-2.79-2.93-8.22-5.13-13.45-3.69-3.71,1.02-4.67,3.66-5.9,6.01-4.43,8.41-4.18,17.23-3.12,26.02Z"/>
  <path class="cls-4" d="M87,105.76l-.28,44.72v1.18c0,2.84-2.57,5.14-5.74,5.14h-13.88c-1.96,0-3.69-1.13-4.28-2.81l-2.52-7.11c-.28-.8.16-1.65,1.02-1.98l13.66-5.12-.56-20.07"/>
  <path class="cls-10" d="M84.73,77.41c1.8,4.19-5.13,7.54-4.75,12.64.24,3.17,3.33,7.29,15.32,11.74.89.33,1.47,1.1,1.46,1.96l-.7,37.9c-.02,1.14-1.06,2.05-2.32,2.05h-4.62c-1.28,0-2.32-.93-2.32-2.08v-31.53c0-1.24-1.2-2.19-2.58-2.06-8.02.77-15.95-2.03-20.76-7.49-6.75-7.65-3.95-16.62-3.4-18.16.04-.11.08-.21.14-.32,2.99-5.58,8.64-9.18,14.55-9.11,3.35.04,8.65,1.28,10,4.45Z"/>
  <ellipse class="cls-21" cx="84.03" cy="89.94" rx="3.69" ry="4.41"/>
  <path class="cls-12" d="M88.3,104.74c1.41,1.71,3.89,5.23,4.64,10.21.51,3.39.02,6.22-.46,8.05"/>
  <path class="cls-12" d="M90,104.59c-.23-.09-.8-.27-1.52-.17-.8.11-1.31.51-1.48.66"/>
  <line class="cls-8" x1="92.28" y1="123.27" x2="92.47" y2="122.49"/>
  <path class="cls-14" d="M89,106.37c0,.5-1.69,1.85-2.16,1.96-.47.12.49-1.04.43-1.08"/>
  <path class="cls-4" d="M137.36,129.66c-.36,2.97-.76,5.93-1.08,8.9-.12,1.12.52,1.28-.24,2.28-.37.48-1.63,1.91-2.14,2.34-1.71,1.44-3.54,2.89-5.99,3.72-2.45.83-5.68.88-7.71-.36-1.76-1.07-2.21-2.78-2.56-4.36-.65-2.93-1.29-5.86-1.94-8.78-1.07-4.83-2.13-9.66-3.2-14.49-1.31-5.95-2.45-12.5,2.38-17.57,2.79-2.93,8.22-5.13,13.45-3.69,3.71,1.02,4.67,3.66,5.9,6.01,4.43,8.41,4.18,17.23,3.12,26.02Z"/>
  <path class="cls-4" d="M109.13,105.76l.28,44.72v1.14c0,2.86,2.59,5.18,5.78,5.18h13.84c1.96,0,3.69-1.13,4.28-2.81l2.52-7.11c.28-.8-.16-1.65-1.02-1.98l-13.66-5.12.56-20.07"/>
  <path class="cls-10" d="M111.4,77.41c-1.8,4.19,5.13,7.54,4.75,12.64-.24,3.17-3.33,7.29-15.32,11.74-.89.33-1.47,1.1-1.46,1.96l.7,37.9c.02,1.14,1.06,2.05,2.32,2.05h4.62c1.28,0,2.32-.93,2.32-2.08v-31.53c0-1.24,1.2-2.19,2.58-2.06,8.02.77,15.95-2.03,20.76-7.49,6.75-7.66,3.95-16.63,3.4-18.16-.04-.11-.08-.21-.14-.31-2.99-5.58-8.64-9.18-14.55-9.11-3.35.04-8.65,1.28-10,4.45Z"/>
  <ellipse class="cls-21" cx="112.09" cy="89.94" rx="3.69" ry="4.41"/>
  <path class="cls-12" d="M107.83,104.74c-1.41,1.71-3.89,5.23-4.64,10.21-.51,3.39-.02,6.22.46,8.05"/>
  <path class="cls-12" d="M106.13,104.59c.23-.09.8-.27,1.52-.17.8.11,1.31.51,1.48.66"/>
  <line class="cls-8" x1="103.85" y1="123.27" x2="103.66" y2="122.49"/>
  <path class="cls-14" d="M107.13,106.37c0,.5,1.69,1.85,2.16,1.96.47.12-.49-1.04-.43-1.08"/>
  <path class="cls-4" d="M99.07,96.03c-5.85-.29-11.8,1.34-16.47,4.51.27-7.42,5.62-14.5,13.22-17.48.79,1.77,1.43,3.65,2.22,5.42.42.94.85,1.9.97,2.91.18,1.47-.67,3.32.07,4.64Z"/>
  <path class="cls-4" d="M100.68,96.84c4.48-1.13,9.65-.24,12.42,2.03.3.24.81.5,1.01.19.04-.07.06-.14.07-.22.48-3.03-.58-6.24-2.83-8.55-1.48-1.53-3.39-2.62-5.33-3.63-.99-.51-4.66-3.08-5.71-2.66-1.05.42.35,4.76.45,5.86.07.8-.93,7.19-.09,6.98Z"/>
  <path class="cls-11" d="M106.98,93.8c.75-4.15-7.06-11.66-11.55-12.32-4.49-.65-4.74,4.79-5.5,8.94-.24,1.29,5.96,8.58,6.76,8.69.68.1,10.21-4.91,10.28-5.31Z"/>
  <path class="cls-7" d="M135.94,39.95c8.39-7.13,21.87-7.03,30.12.23,8.25,7.26,8.13,18.92-.26,26.05-8.39,7.13-21.87,7.03-30.12-.23"/>
  <ellipse class="cls-20" cx="149.85" cy="53.09" rx="9.68" ry="7.21"/>
  <path class="cls-9" d="M144.49,47.48c3.38-2.87,8.93-2.73,12.39.33,3.47,3.05,3.54,7.85.16,10.72"/>
  <path class="cls-14" d="M156.88,47.8c-.3-.03-5.3-.53-8.16,2.63-1.42,1.57-1.64,3.29-1.68,4.07"/>
  <path class="cls-7" d="M145.77,47.53c0,22.59-20.97,40.91-46.84,40.91s-46.84-18.31-46.84-40.91c0-13.5,8.18-23.33,10.37-25.67,1.07-1.14,15.03-15.57,36.47-15.24,17.49.27,29.12,9.09,33.6,13.18,2.64,2.41,13.24,12.92,13.24,27.73Z"/>
  <path class="cls-7" d="M62.46,38.62c-8.37-7.08-21.83-6.98-30.05.22-8.23,7.21-8.11,18.79.26,25.87,8.37,7.08,21.83,6.98,30.05-.22"/>
  <ellipse class="cls-20" cx="48.58" cy="51.67" rx="9.66" ry="7.16"/>
  <path class="cls-9" d="M53.92,46.1c-3.37-2.85-8.91-2.71-12.36.32-3.46,3.03-3.53,7.8-.16,10.65"/>
  <path class="cls-14" d="M41.56,46.42c.3-.03,5.28-.53,8.14,2.61,1.42,1.56,1.64,3.27,1.68,4.04"/>
  <ellipse class="cls-1" cx="118.69" cy="48.83" rx="16" ry="13.68"/>
  <ellipse class="cls-15" cx="121.43" cy="48.63" rx="16" ry="13.68"/>
  <g>
    <ellipse class="cls-18" cx="121.55" cy="48.83" rx="10.75" ry="9.19"/>
    <ellipse class="cls-14" cx="121.55" cy="48.83" rx="10.75" ry="9.19"/>
  </g>
  <g>
    <ellipse class="cls-17" cx="123" cy="48.41" rx="4.31" ry="3.06"/>
    <ellipse class="cls-14" cx="123" cy="48.41" rx="4.31" ry="3.06"/>
  </g>
  <g>
    <path class="cls-19" d="M110.68,47.82c0-5.07,4.81-9.19,10.75-9.19s10.75,4.11,10.75,9.19"/>
    <path class="cls-14" d="M110.68,47.82c0-5.07,4.81-9.19,10.75-9.19s10.75,4.11,10.75,9.19"/>
  </g>
  <line class="cls-7" x1="110.68" y1="47.82" x2="132.18" y2="47.82"/>
  <path class="cls-5" d="M127.28,43.2c.49.48.97.97,1.42,1.47.16.18.34.4.28.62-.38.16-.85.15-1.22-.03s-.62-.53-.64-.89c0-.11,0-.24-.08-.32-.06-.06-.14-.08-.22-.11-.37-.14-1.13-.76-.93-1.19.29-.6,1.09.17,1.38.45Z"/>
  <ellipse class="cls-1" cx="85.32" cy="48.55" rx="16" ry="13.68"/>
  <ellipse class="cls-15" cx="88.06" cy="48.34" rx="16" ry="13.68"/>
  <g>
    <ellipse class="cls-18" cx="88.19" cy="48.55" rx="10.75" ry="9.19"/>
    <ellipse class="cls-14" cx="88.19" cy="48.55" rx="10.75" ry="9.19"/>
  </g>
  <g>
    <ellipse class="cls-17" cx="89.63" cy="48.12" rx="4.31" ry="3.06"/>
    <ellipse class="cls-14" cx="89.63" cy="48.12" rx="4.31" ry="3.06"/>
  </g>
  <g>
    <path class="cls-19" d="M77.32,47.53c0-5.07,4.81-9.19,10.75-9.19s10.75,4.11,10.75,9.19"/>
    <path class="cls-14" d="M77.32,47.53c0-5.07,4.81-9.19,10.75-9.19s10.75,4.11,10.75,9.19"/>
  </g>
  <line class="cls-7" x1="77.32" y1="47.53" x2="98.81" y2="47.53"/>
  <path class="cls-5" d="M93.92,42.91c.49.48.97.97,1.42,1.47.16.18.34.4.28.62-.38.16-.85.15-1.22-.03s-.62-.53-.64-.89c0-.11,0-.24-.08-.32-.06-.06-.14-.08-.22-.11-.37-.14-1.13-.76-.93-1.19.29-.6,1.09.17,1.38.45Z"/>
  <path class="cls-14" d="M72.22,34.74c.75-.65,6.75-5.62,15.38-4.7,5.93.63,9.67,3.68,10.82,4.7"/>
  <path class="cls-14" d="M106.77,34.74c.75-.65,6.75-5.62,15.38-4.7,5.93.63,9.67,3.68,10.82,4.7"/>
  <path class="cls-14" d="M110.18,75.56c-.14-.2-1.89-2.51-5.02-2.59-2.69-.07-5.25,1.52-6.16,3.95"/>
  <path class="cls-6" d="M66.64,6.07c1.07.14,1.14.95,2.28,1.14,2.22.37,3.07-2.55,5.22-3.12,2.26-.6,4.51,1.71,6.81,1.21,1.98-.43,2.82-2.74,4.86-2.84,1.5-.08,2.59,1.1,3.97,1.59,4.25,1.51,8.05-3.76,12.69-3.53,1.11,1.43,2.22,2.87,3.33,4.3,3.42-1.78,8.79.32,9.17,3.59,3.47-.69,7.34.1,10,2.02-.06-.94,1.67-1.33,2.67-.84s1.53,1.41,2.31,2.12c2.66,2.39,8.27,2.3,9.62,5.32.58,1.29.11,2.71.19,4.08.08,1.37,1.21,2.96,2.91,2.82-.82,1.49-.16,3.4,1.48,4.34.99,1.97-.2,4.48-2.57,5.42-.83-2.4-2-3.97-2.73-4.84-7.18-8.47-20.65-5.62-57.07-6.87-3.82-.13-6.51-.04-9.9,1.01-6.04,1.87-11.55,15.9-19.36,10.76-4.49-2.96-6.29-19.9.86-16.51,2.99-1.9,5.01-3.74,6.29-5.04,3.16-3.23,4.89-6.39,6.97-6.12Z"/>
  <path class="cls-20" d="M61.96,39.15c.64,2.91.14,4.49.52,4.58.54.13,2.31-2.96,3.35-6.65.55-1.95.47-2.55.82-3.95.5-2.04,1.68-4.85,4.71-8.04.69-.67,1.41-1.45,1.24-1.62-.19-.19-1.45.44-2.27.94-1.65,1.01-2.51,2.06-3.37,3.04-1.18,1.34-2.68,3.04-4.59,4.55-2.38,1.89-4.28,2.49-4.06,3.27.19.65,1.6.47,2.7,1.63.34.36.65.83.96,2.24Z"/>
  <path class="cls-3" d="M94.44,172.16c-.6,2.08-1.72,6-3.35,11.76-.85,3.38-1.57,7.32-2.17,11.84H7.06c-.3-12.2-1.06-32.3-2.26-60.28-.78-14.33-2.2-34.11-4.25-59.35h62.78l-5.16,99.23c5.85,0,14.62-.54,26.32-1.64,2.41-.21,5.73-.73,9.95-1.56Z"/>
</svg>